<svg xmlns="http://www.w3.org/2000/svg" xmlns:xlink="http://www.w3.org/1999/xlink" version="1.1" width="256" height="256" viewBox="0 0 256 256" xml:space="preserve">
<desc>Created with Fabric.js 1.7.22</desc>
<defs>
</defs>
<g transform="translate(128 128) scale(0.87 0.87)" style="">
	<g style="stroke: none; stroke-width: 0; stroke-dasharray: none; stroke-linecap: butt; stroke-linejoin: miter; stroke-miterlimit: 10; fill: none; fill-rule: nonzero; opacity: 1;" transform="translate(-144.89999999999998 -144.90000000000003) scale(3.22 3.22)" >
	<path d="M 74.979 74.325 l 14.955 -48.803 c 0.244 -0.796 -0.204 -1.638 -0.999 -1.882 L 50.479 11.856 c -4.641 -1.422 -9.557 1.187 -10.979 5.828 L 24.58 66.374 l 1.453 0.445 l 0 0 l 0.002 0 l 1.451 0.445 l 0.067 -0.219 l 45.971 6.835 L 74.979 74.325 z" style="stroke: none; stroke-width: 1; stroke-dasharray: none; stroke-linecap: butt; stroke-linejoin: miter; stroke-miterlimit: 10; fill: rgb(125,101,153); fill-rule: nonzero; opacity: 1;" transform=" matrix(1 0 0 1 0 0) " stroke-linecap="round" />
	<path d="M 74.978 74.325 l -4.198 13.699 l -2.636 -0.808 L 30.784 75.767 c -3.783 -1.159 -5.91 -5.165 -4.75 -8.948 l 0 0 c 1.159 -3.783 5.165 -5.91 8.948 -4.75 l 29.681 9.095 L 74.978 74.325 z" style="stroke: none; stroke-width: 1; stroke-dasharray: none; stroke-linecap: butt; stroke-linejoin: miter; stroke-miterlimit: 10; fill: rgb(241,235,213); fill-rule: nonzero; opacity: 1;" transform=" matrix(1 0 0 1 0 0) " stroke-linecap="round" />
	<path d="M 70.336 89.477 L 30.339 77.221 c -4.578 -1.403 -7.161 -6.269 -5.758 -10.847 c 1.403 -4.578 6.269 -7.161 10.847 -5.758 l 39.997 12.256 l -0.891 2.906 L 34.536 63.522 c -2.975 -0.912 -6.138 0.767 -7.049 3.742 c -0.912 2.975 0.767 6.138 3.742 7.05 l 39.997 12.256 L 70.336 89.477 z" style="stroke: none; stroke-width: 1; stroke-dasharray: none; stroke-linecap: butt; stroke-linejoin: miter; stroke-miterlimit: 10; fill: rgb(82,68,102); fill-rule: nonzero; opacity: 1;" transform=" matrix(1 0 0 1 0 0) " stroke-linecap="round" />
	<path d="M 73.525 45.259 l -29.358 -8.996 c -0.774 -0.237 -1.209 -1.057 -0.972 -1.831 l 3.481 -11.36 c 0.237 -0.774 1.057 -1.209 1.831 -0.972 l 29.358 8.996 c 0.774 0.237 1.209 1.057 0.972 1.831 l -3.481 11.36 C 75.119 45.061 74.299 45.496 73.525 45.259 z" style="stroke: none; stroke-width: 1; stroke-dasharray: none; stroke-linecap: butt; stroke-linejoin: miter; stroke-miterlimit: 10; fill: rgb(82,68,102); fill-rule: nonzero; opacity: 1;" transform=" matrix(1 0 0 1 0 0) " stroke-linecap="round" />
	<path d="M 71.267 52.444 l -29.255 -8.965 c -0.803 -0.246 -1.254 -1.096 -1.008 -1.899 c 0.246 -0.803 1.096 -1.254 1.899 -1.008 l 29.255 8.965 c 0.803 0.246 1.254 1.096 1.008 1.899 S 72.07 52.69 71.267 52.444 z" style="stroke: none; stroke-width: 1; stroke-dasharray: none; stroke-linecap: butt; stroke-linejoin: miter; stroke-miterlimit: 10; fill: rgb(82,68,102); fill-rule: nonzero; opacity: 1;" transform=" matrix(1 0 0 1 0 0) " stroke-linecap="round" />
	<path d="M 69.263 58.983 l -29.255 -8.965 c -0.803 -0.246 -1.254 -1.096 -1.008 -1.899 c 0.246 -0.803 1.096 -1.254 1.899 -1.008 l 29.255 8.965 c 0.803 0.246 1.254 1.096 1.008 1.899 C 70.916 58.778 70.066 59.229 69.263 58.983 z" style="stroke: none; stroke-width: 1; stroke-dasharray: none; stroke-linecap: butt; stroke-linejoin: miter; stroke-miterlimit: 10; fill: rgb(82,68,102); fill-rule: nonzero; opacity: 1;" transform=" matrix(1 0 0 1 0 0) " stroke-linecap="round" />
	<path d="M 61.344 50.482 L 46.66 1.596 C 46.42 0.8 45.58 0.348 44.783 0.587 L 6.263 12.158 c -4.649 1.396 -7.286 6.297 -5.889 10.946 l 14.65 48.771 l 1.456 -0.437 l 0 0 l 0.002 -0.001 L 17.935 71 l -0.066 -0.219 l 42.018 -19.862 L 61.344 50.482 z" style="stroke: none; stroke-width: 1; stroke-dasharray: none; stroke-linecap: butt; stroke-linejoin: miter; stroke-miterlimit: 10; fill: rgb(230,76,60); fill-rule: nonzero; opacity: 1;" transform=" matrix(1 0 0 1 0 0) " stroke-linecap="round" />
	<path d="M 61.344 50.482 l 4.122 13.722 l -2.641 0.793 L 25.401 76.238 c -3.789 1.138 -7.783 -1.011 -8.922 -4.8 l 0 0 c -1.138 -3.789 1.011 -7.783 4.8 -8.922 l 29.731 -8.931 L 61.344 50.482 z" style="stroke: none; stroke-width: 1; stroke-dasharray: none; stroke-linecap: butt; stroke-linejoin: miter; stroke-miterlimit: 10; fill: rgb(241,235,213); fill-rule: nonzero; opacity: 1;" transform=" matrix(1 0 0 1 0 0) " stroke-linecap="round" />
	<path d="M 65.903 65.659 L 25.838 77.693 c -4.586 1.377 -9.437 -1.233 -10.815 -5.819 c -1.377 -4.585 1.233 -9.437 5.818 -10.814 l 40.064 -12.035 l 0.875 2.911 L 21.717 63.972 c -2.98 0.895 -4.677 4.048 -3.782 7.028 c 0.895 2.98 4.049 4.677 7.029 3.782 l 40.064 -12.035 L 65.903 65.659 z" style="stroke: none; stroke-width: 1; stroke-dasharray: none; stroke-linecap: butt; stroke-linejoin: miter; stroke-miterlimit: 10; fill: rgb(178,64,48); fill-rule: nonzero; opacity: 1;" transform=" matrix(1 0 0 1 0 0) " stroke-linecap="round" />
	<path d="M 43.984 27.123 l -29.407 8.833 c -0.775 0.233 -1.593 -0.207 -1.826 -0.982 L 9.333 23.595 c -0.233 -0.775 0.207 -1.593 0.982 -1.826 l 29.407 -8.833 c 0.775 -0.233 1.593 0.207 1.826 0.982 l 3.418 11.379 C 45.199 26.072 44.76 26.89 43.984 27.123 z" style="stroke: none; stroke-width: 1; stroke-dasharray: none; stroke-linecap: butt; stroke-linejoin: miter; stroke-miterlimit: 10; fill: rgb(178,64,48); fill-rule: nonzero; opacity: 1;" transform=" matrix(1 0 0 1 0 0) " stroke-linecap="round" />
	<path d="M 46.099 34.351 l -29.304 8.802 c -0.804 0.241 -1.651 -0.215 -1.893 -1.018 s 0.215 -1.651 1.018 -1.893 l 29.304 -8.802 c 0.804 -0.241 1.651 0.215 1.893 1.018 S 46.903 34.11 46.099 34.351 z" style="stroke: none; stroke-width: 1; stroke-dasharray: none; stroke-linecap: butt; stroke-linejoin: miter; stroke-miterlimit: 10; fill: rgb(178,64,48); fill-rule: nonzero; opacity: 1;" transform=" matrix(1 0 0 1 0 0) " stroke-linecap="round" />
	<path d="M 48.067 40.902 l -29.304 8.802 c -0.804 0.241 -1.651 -0.215 -1.893 -1.018 s 0.215 -1.651 1.018 -1.893 l 29.304 -8.802 c 0.804 -0.241 1.651 0.215 1.893 1.018 S 48.871 40.66 48.067 40.902 z" style="stroke: none; stroke-width: 1; stroke-dasharray: none; stroke-linecap: butt; stroke-linejoin: miter; stroke-miterlimit: 10; fill: rgb(178,64,48); fill-rule: nonzero; opacity: 1;" transform=" matrix(1 0 0 1 0 0) " stroke-linecap="round" />
</g>
</g>
</svg>